<svg width="71" height="71" viewBox="0 0 71 71" fill="none" xmlns="http://www.w3.org/2000/svg">
<path d="M48.1182 2.17114H42.636C42.3749 2.17114 42.1246 2.27485 41.94 2.45946C41.7554 2.64407 41.6516 2.89445 41.6516 3.15552V4.10653C41.6516 4.2358 41.6771 4.36381 41.7266 4.48324C41.776 4.60267 41.8486 4.71118 41.94 4.80259C42.1246 4.9872 42.3749 5.09091 42.636 5.09091H48.1182C48.2474 5.09091 48.3754 5.06545 48.4949 5.01598C48.6143 4.96651 48.7228 4.894 48.8142 4.80259C48.9056 4.71118 48.9781 4.60267 49.0276 4.48324C49.0771 4.36381 49.1025 4.2358 49.1025 4.10653V3.15552C49.1025 2.89445 48.9988 2.64407 48.8142 2.45946C48.6296 2.27485 48.3792 2.17114 48.1182 2.17114Z" fill="#8F9799"/>
<path d="M54.3826 7.22412V64.6646C54.3826 66.8392 52.6198 68.6021 50.4451 68.6021H21.2518C19.0772 68.6021 17.3143 66.8392 17.3143 64.6646V7.22412C17.3143 5.04947 19.0772 3.28662 21.2518 3.28662H50.4451C52.6198 3.28662 54.3826 5.04947 54.3826 7.22412Z" fill="#464A4C"/>
<path d="M51.6593 9.62231V57.4696C51.6593 58.557 50.7779 59.4384 49.6906 59.4384H22.0064C20.9191 59.4384 20.0376 58.557 20.0376 57.4696V9.62231C20.0376 8.53499 20.9191 7.65356 22.0064 7.65356H49.6906C50.7779 7.65356 51.6593 8.53499 51.6593 9.62231Z" fill="#CAD6D8"/>
<path d="M20.0376 47.0076V9.35161C20.0376 8.41372 20.8343 7.65356 21.8172 7.65356H43.326L20.0376 47.0076Z" fill="#F4F9F9"/>
<path d="M33.0161 65.7876H38.6809C39.6595 65.7876 40.4528 64.9944 40.4528 64.0158V63.951C40.4528 62.9723 39.6595 62.1791 38.6809 62.1791H33.0161C32.0374 62.1791 31.2442 62.9723 31.2442 63.951V64.0158C31.2442 64.9944 32.0374 65.7876 33.0161 65.7876Z" fill="#8F9799"/>
</svg>
