<svg width="14" height="9" viewBox="0 0 14 9" fill="none" xmlns="http://www.w3.org/2000/svg">
<path d="M13.0171 5.645C13.0821 5.86 13.2821 6 13.4971 6V5.995C13.5749 5.99574 13.6519 5.97815 13.7217 5.94365C13.7915 5.90915 13.8522 5.85872 13.8989 5.79642C13.9457 5.73412 13.9771 5.66171 13.9907 5.58503C14.0042 5.50835 13.9996 5.42955 13.9771 5.355C13.9616 5.305 12.3066 0 6.99755 0C1.68855 0 0.0350529 5.305 0.0200529 5.36C-0.0599471 5.625 0.090053 5.9 0.355053 5.98C0.620053 6.06 0.900053 5.91 0.980053 5.645C1.03455 5.455 2.44455 1 6.99805 1C11.5506 1 12.9556 5.4515 13.0171 5.645ZM5.00005 6C5.00005 5.46957 5.21077 4.96086 5.58584 4.58579C5.96091 4.21071 6.46962 4 7.00005 4C7.53049 4 8.03919 4.21071 8.41427 4.58579C8.78934 4.96086 9.00005 5.46957 9.00005 6C9.00005 6.53043 8.78934 7.03914 8.41427 7.41421C8.03919 7.78929 7.53049 8 7.00005 8C6.46962 8 5.96091 7.78929 5.58584 7.41421C5.21077 7.03914 5.00005 6.53043 5.00005 6ZM7.00005 3C6.2044 3 5.44134 3.31607 4.87873 3.87868C4.31612 4.44129 4.00005 5.20435 4.00005 6C4.00005 6.79565 4.31612 7.55871 4.87873 8.12132C5.44134 8.68393 6.2044 9 7.00005 9C7.7957 9 8.55876 8.68393 9.12137 8.12132C9.68398 7.55871 10.0001 6.79565 10.0001 6C10.0001 5.20435 9.68398 4.44129 9.12137 3.87868C8.55876 3.31607 7.7957 3 7.00005 3Z" fill="black"/>
</svg>
