<svg width="72" height="72" viewBox="0 0 72 72" fill="none" xmlns="http://www.w3.org/2000/svg">
<path d="M45.54 48.7215L63.657 66.843C63.8662 67.0522 64.1145 67.2181 64.3878 67.3314C64.6612 67.4446 64.9541 67.5028 65.25 67.5028C65.5458 67.5028 65.8388 67.4446 66.1121 67.3314C66.3854 67.2181 66.6338 67.0522 66.843 66.843C67.0522 66.6338 67.2181 66.3855 67.3313 66.1121C67.4445 65.8388 67.5028 65.5459 67.5028 65.25C67.5028 64.9542 67.4445 64.6612 67.3313 64.3879C67.2181 64.1145 67.0522 63.8662 66.843 63.657L8.34297 5.157C8.13378 4.94781 7.88543 4.78187 7.6121 4.66865C7.33877 4.55543 7.04582 4.49716 6.74997 4.49716C6.45413 4.49716 6.16118 4.55543 5.88785 4.66865C5.61452 4.78187 5.36617 4.94781 5.15697 5.157C4.94778 5.3662 4.78183 5.61455 4.66862 5.88788C4.5554 6.16121 4.49713 6.45416 4.49713 6.75C4.49713 7.04585 4.5554 7.3388 4.66862 7.61213C4.78183 7.88546 4.94778 8.13381 5.15697 8.343L19.692 22.878C17.7141 24.28 15.9342 25.9419 14.4 27.819C12.2283 30.4837 10.5283 33.5002 9.37347 36.738C9.27897 37.0125 9.16197 37.3905 9.16197 37.3905L9.08097 37.6695C9.08097 37.6695 8.73897 39.906 10.6785 40.419C11.2549 40.5714 11.8682 40.4887 12.3838 40.1892C12.8993 39.8896 13.2749 39.3977 13.428 38.8215L13.4325 38.808L13.4685 38.6955L13.626 38.205C14.6068 35.4714 16.0447 32.9241 17.8785 30.672C19.3231 28.9031 21.0287 27.3645 22.9365 26.109L30.0375 33.21C28.6045 34.1081 27.3925 35.3178 26.4915 36.749C25.5905 38.1802 25.0238 39.7961 24.8335 41.4765C24.6432 43.1569 24.8342 44.8586 25.3923 46.455C25.9504 48.0515 26.8613 49.5015 28.0571 50.6974C29.253 51.8932 30.703 52.804 32.2994 53.3621C33.8959 53.9202 35.5976 54.1113 37.278 53.921C38.9584 53.7307 40.5743 53.1639 42.0055 52.263C43.4367 51.362 44.6463 50.15 45.5445 48.717M28.4445 18.891L32.2875 22.734C33.4545 22.578 34.692 22.5 36 22.5C45.198 22.5 50.787 26.604 54.126 30.6765C55.9597 32.9286 57.3977 35.4759 58.3785 38.2095C58.4535 38.4285 58.506 38.592 58.536 38.7L58.572 38.8125V38.826L58.5765 38.8305C58.743 39.3921 59.1219 39.8666 59.6328 40.1532C60.1436 40.4398 60.7461 40.5159 61.3121 40.3653C61.8782 40.2147 62.3632 39.8493 62.6641 39.3467C62.965 38.8442 63.058 38.2441 62.9235 37.674V37.6605L62.919 37.6425L62.901 37.584C62.8248 37.2993 62.7347 37.0184 62.631 36.7425C61.4762 33.5047 59.7762 30.4882 57.6045 27.8235C53.5725 22.9005 46.782 18 36.009 18C33.228 18 30.7125 18.3195 28.4445 18.891Z" fill="black"/>
</svg>
